<?xml version="1.0" encoding="UTF-8" standalone="no"?>
<!-- Created with Inkscape (http://www.inkscape.org/) -->

<svg
   xmlns:dc="http://purl.org/dc/elements/1.1/"
   xmlns:cc="http://creativecommons.org/ns#"
   xmlns:rdf="http://www.w3.org/1999/02/22-rdf-syntax-ns#"
   xmlns:svg="http://www.w3.org/2000/svg"
   xmlns="http://www.w3.org/2000/svg"
   xmlns:sodipodi="http://sodipodi.sourceforge.net/DTD/sodipodi-0.dtd"
   xmlns:inkscape="http://www.inkscape.org/namespaces/inkscape"
   width="270mm"
   height="196mm"
   viewBox="0 0 270 196"
   version="1.1"
   id="svg8"
   inkscape:version="0.92.3 (2405546, 2018-03-11)"
   sodipodi:docname="haforn.svg">
  <defs
     id="defs2" />
  <sodipodi:namedview
     id="base"
     pagecolor="#ffffff"
     bordercolor="#666666"
     borderopacity="1.0"
     inkscape:pageopacity="0.0"
     inkscape:pageshadow="2"
     inkscape:zoom="0.68991132"
     inkscape:cx="395.7502"
     inkscape:cy="373.09671"
     inkscape:document-units="mm"
     inkscape:current-layer="g13"
     showgrid="false"
     inkscape:window-width="1920"
     inkscape:window-height="1001"
     inkscape:window-x="-9"
     inkscape:window-y="-9"
     inkscape:window-maximized="1" />
  <metadata
     id="metadata5">
    <rdf:RDF>
      <cc:Work
         rdf:about="">
        <dc:format>image/svg+xml</dc:format>
        <dc:type
           rdf:resource="http://purl.org/dc/dcmitype/StillImage" />
        <dc:title />
      </cc:Work>
    </rdf:RDF>
  </metadata>
  <g
     inkscape:label="Layer 1"
     inkscape:groupmode="layer"
     id="layer1"
     transform="translate(0,-101)">
    <g
       id="g13"
       transform="translate(-4.3388456,-9.2200469)">
      <g
         id="g19"
         transform="matrix(1.0414211,0,0,1.0299434,-8.1451584,-5.0797047)">
        <path
           style="fill:#000000;stroke:#000000;stroke-width:0.26458332px;stroke-linecap:butt;stroke-linejoin:miter;stroke-opacity:1"
           d="m 178.78274,216.39658 0.89769,-1.27567 -4.11049,-4.63021 -5.5279,-2.78757 -1.18118,0.61421 -1.37016,1.55915 -3.26005,5.5279 -1.13393,2.4096 -1.32291,3.02381 -1.98438,3.77976 -1.08668,2.88207 -1.03943,2.17336 -0.61421,2.12612 -0.18899,1.65364 -0.0945,3.2128 1.13393,3.1183 0.70871,2.74033 0.23623,2.92932 -0.28348,6.00037 0.33073,0.51972 0.33073,4.81919 -0.28348,1.37017 0.7087,0.47247 2.45685,0.0945 0.8032,-0.61421 2.17336,-0.23623 2.03162,0.99218 1.51191,1.6064 0.23623,1.70089 h -1.32291 l -0.25987,-1.08668 -0.0472,-0.51971 h -1.06306 l -0.44884,0.44884 v 0.77958 l -1.13394,0.82682 -5.48065,-0.73233 -0.44885,-0.0472 0.18899,0.77957 1.86626,3.1183 3.59077,0.11812 0.61421,-0.49609 2.64584,-0.0236 0.49609,0.61421 0.0472,1.22842 -0.44885,0.18899 -0.47247,-0.73233 -0.96856,0.0236 -0.75596,0.61421 v 0.89769 l -2.40959,0.92132 2.29148,1.29929 1.01581,0.30711 2.05525,0.44885 2.78757,-0.0473 1.22842,0.82682 0.4961,0.87407 0.0709,1.44104 -0.70871,0.61421 -0.37798,-0.21261 -0.54334,-1.96076 -1.77176,-0.14174 -0.0709,1.37017 -1.48828,0.18899 -6.59096,-2.55134 -0.37798,0.51971 2.78758,3.73252 -0.0709,2.95294 -0.82683,0.0472 v -2.00799 l -0.37797,-0.42523 -1.11031,0.0236 -1.34654,-2.33873 -0.75595,-0.0709 -1.65365,-3.66164 -1.25204,-0.0945 -0.8977,-0.66145 -0.21261,-0.54334 -1.1103,0.0236 -0.23624,0.33073 -1.9135,-0.0236 -0.87407,1.18117 -0.44885,-0.0709 -0.0236,-1.67727 -0.82682,0.73233 -1.03943,-0.0945 0.16536,-2.05525 0.0709,-0.75595 -0.82682,-0.33073 -1.27567,0.75595 v 0.44885 l -1.44103,-0.0709 -0.47247,-2.8112 -0.42523,-4.20499 -0.61421,-1.22842 v -1.96075 l -1.39379,1.84263 -1.25204,-0.14174 -0.56697,-0.54334 c 0,0 0.0473,-3.70889 0.0236,-3.61439 -0.0236,0.0945 -0.94494,3.1183 -0.94494,3.1183 l -0.77958,0.61421 c 0,0 -0.82682,0.0236 -0.92131,-0.0472 -0.0945,-0.0709 -0.4961,-0.89769 -0.4961,-0.89769 l 0.11812,-1.63002 -0.75595,-1.37017 -0.21261,-0.49609 0.0709,-3.02381 -0.35436,-0.61421 0.0472,-1.22842 0.18899,-0.68509 -0.35435,-0.61421 -1.96075,1.06306 -0.87407,-0.0236 -2.1025,2.31511 -0.68508,-0.18899 -0.0236,-0.8032 0.59059,-0.75595 -0.37798,-0.42523 -1.44103,1.2993 -0.59059,-0.33073 0.35435,-1.13393 -1.06305,0.7087 -0.0709,-1.1103 0.0236,-0.11812 0.63784,-0.63783 -1.06306,0.37797 0.11812,-1.08668 1.79538,-1.1103 -2.6222,0.92131 -0.92132,-0.33073 -0.47247,-1.74814 1.88988,-1.81901 -3.9215,0.14174 -0.92132,-0.66145 -2.59859,1.37016 -3.40178,0.21261 -5.03181,0.21261 -3.96875,0.33073 -2.50409,-0.0472 -2.62221,-0.82683 -6.094867,-0.0709 -1.511905,-0.18899 -2.787574,-0.3071 -1.559152,-0.85045 -0.165365,-0.7087 0.566965,-0.11812 -2.385975,-0.42522 -0.188989,-0.68508 1.228423,-0.18899 -1.181177,-1.08668 0.07087,-0.66146 h 0.590587 v -1.01582 l 0.519718,-0.21261 v -0.77957 l -0.661458,-0.47247 -0.87407,-0.28348 -1.252045,-0.4016 -0.566965,-0.0236 -0.118118,-0.8032 0.472469,-0.96857 3.945128,-1.5119 -2.267858,-1.93713 0.02363,-0.8032 1.771761,-1.01581 2.102493,0.0472 1.417412,-0.4961 -1.913506,-1.25204 -1.889879,-2.4096 v -0.33073 l 5.197171,0.33073 1.252048,-0.0945 -1.086684,-1.48829 -0.992187,-0.87407 -0.04725,-2.12611 -1.606399,-0.11812 -1.228421,-1.53553 -0.968565,-0.0236 -1.889882,1.18118 -2.078868,-0.0945 -1.582775,-2.12612 0.118118,-2.92932 -2.102493,0.25987 -2.409597,-0.51972 0.02363,-0.96857 -3.212798,-0.56696 -1.346539,-1.22842 -0.448847,-0.87407 -1.488281,-0.61422 -0.826823,-0.0472 -1.27567,-1.25205 -0.09449,-3.54353 -4.606586,-0.66145 -0.874069,-1.79539 -2.527716,-0.51972 -1.204798,-1.01581 -0.07087,-2.83482 1.322917,-3.00019 -1.677268,-0.0709 -1.889882,0.87407 H 55.72782 l -1.299292,-1.01581 0.803198,-1.08668 -0.118118,-0.92131 -7.299663,0.0945 -3.141927,-1.81901 -0.944941,-1.91351 0.07087,-1.2048 3.96875,-2.14974 3.543528,-1.03943 -0.07087,-0.4016 h -4.039619 l -3.992375,-0.0709 -4.582961,-2.19699 -1.960751,-1.88988 -4.77195,-0.0945 c 0,0 -1.630022,-0.33073 -1.724515,-0.37798 -0.0945,-0.0472 -5.24442,-0.7087 -5.24442,-0.7087 L 20.883143,178.10275 20.469,177.66209 V 177.21 l 1.091267,-0.32738 2.447555,-0.4521 2.322838,-0.46768 2.541092,-0.51446 10.491748,-2.13576 v -0.59239 l -1.418646,-0.37415 -1.621311,0.0156 -1.013319,-0.32738 c 0,0 -5.097772,-0.23384 -5.160132,-0.26502 -0.06236,-0.0312 -1.138034,-0.48327 -1.138034,-0.48327 l -3.080206,-0.33392 -3.182677,-0.23524 -2.18636,-0.26292 -2.117171,-0.4013 -1.992633,-0.37361 -3.210351,-0.16606 0.04151,-1.09317 5.092282,-0.81643 4.635637,-0.59502 5.244496,-0.44281 6.559082,-0.33211 5.82568,-0.30442 1.937282,-2.47696 -1.840418,1.49448 h -4.220503 l -2.241712,-0.33211 -3.085811,-0.48432 -2.656846,-0.26292 -3.168837,-1.34226 -2.366251,-0.0554 -1.383772,-0.51199 -0.664211,-0.7334 -1.937281,-0.0138 0.02768,-0.56734 -1.909606,0.0415 -0.166053,-0.81643 -0.844101,0.87178 h -1.452961 l -3.085812,-1.42529 0.08303,-1.14853 26.748318,1.2454 7.721451,0.0554 2.961272,-1.32842 0.08303,-2.35242 -3.500946,-1.92344 -4.98158,-2.54614 -3.210351,-2.11717 -2.79522,-2.7122 -2.061821,-2.73986 -2.158685,-2.75371 -2.393926,-4.38656 -2.047982,-4.53877 -1.21772,-4.44191 0.01384,-1.79891 7.347831,8.84231 3.071974,3.92991 3.431757,3.63932 2.767544,2.35242 3.127325,2.22787 8.274957,4.12364 -0.02768,-0.35978 -5.631953,-4.4004 -3.390241,-3.8884 -3.570134,-5.38287 -1.619012,-3.65316 -0.650375,-0.69189 -1.010153,-3.36256 c 0,0 -0.456644,-0.85794 -0.456644,-0.91329 0,-0.0554 -0.262916,-2.18636 -0.262916,-2.18636 l -0.705726,-1.39761 -0.152215,-1.50831 -1.190043,-4.35889 2.739869,2.40777 2.393926,4.09596 1.646687,3.7777 1.812743,3.69467 2.905921,4.37272 2.380089,2.75371 1.120857,1.42529 1.591336,1.49447 1.577502,1.27307 1.286909,1.05167 c 0,0 5.77033,3.73618 5.77033,3.66699 0,-0.0692 0.193728,-1.78506 0.193728,-1.78506 l 1.079341,-0.1107 0.304432,0.56734 0.05535,-2.79522 2.241709,2.65685 5.11996,3.23802 4.774011,2.43544 4.331208,1.79891 2.781382,1.39761 -2.200198,-4.2897 -0.01384,-0.77491 0.691889,-1.21772 1.452959,0.1107 6.005573,3.667 8.08123,3.62548 5.756487,2.78138 3.86073,1.54983 2.57382,1.70204 4.53877,4.59412 -0.23524,-3.43175 1.4668,-0.26292 6.21313,5.9779 3.01663,2.25554 c 0,0 2.643,1.48064 2.69835,1.50832 0.0553,0.0277 4.06829,1.52215 4.06829,1.52215 l -3.5978,-3.12733 -1.72972,-2.25555 -0.98248,-2.03414 -1.10702,-2.78138 -0.81642,-2.7122 -0.48432,-2.46311 -0.0969,-2.15869 1.68821,-3.75002 2.93359,3.69467 2.06182,3.95759 1.78507,3.61165 1.88193,2.89208 2.0895,2.4216 1.71588,1.66053 -2.14485,-4.66331 -0.88562,-2.57382 -0.27675,-2.17252 -0.26292,-2.35242 -0.23524,-3.01662 0.29059,-2.78138 1.024,-2.53231 0.87177,-0.71956 1.2454,0.0138 1.7989,5.61812 0.87178,3.54245 1.71587,5.79801 3.45944,6.39303 2.36625,-1.30075 0.94096,0.083 2.54614,3.00278 2.65684,-0.94096 1.38378,0.66421 1.05166,1.10702 1.72972,1.31458 0.7334,0.19373 1.64669,1.30075 0.40129,2.15868 -2.3109,3.40408 0.1107,1.97879 c 0,0 0.85794,1.56367 0.80259,1.56367 -0.0554,0 0.55351,0.49816 0.55351,0.49816 l 1.03783,0.0415 0.0277,0.96864 -0.60885,0.35978 3.58396,0.63653 3.11349,0.69189 c 0,0 2.32474,0.71956 2.39393,0.74724 0.0692,0.0277 3.72235,0.9548 3.72235,0.9548 l 2.61533,1.06551 c 0,0 1.84041,0.92712 1.89576,0.9548 0.0554,0.0277 2.10334,1.36993 2.10334,1.36993 l 1.66052,1.34226 1.48064,1.42529 1.67437,1.95112 1.01015,1.9096 0.63653,2.24171 -0.0277,2.11717 0.0415,1.17621 0.44281,1.97879 0.083,2.78139 -0.0553,0.76107 -2.04798,2.49079 -0.77491,0.67805 z"
           id="path21"
           inkscape:connector-curvature="0" />
        <path
           style="fill:#000000;stroke:#000000;stroke-width:0.26458332px;stroke-linecap:butt;stroke-linejoin:miter;stroke-opacity:1"
           d="m 138.64113,297.55103 131.96364,-0.009 -0.26559,-40.21639 -1.65312,0.22042 -1.65309,1.21228 -1.21229,1.4327 -1.4327,0.77145 -2.42457,1.76332 -1.10207,0.99187 -2.75519,-0.55104 -2.97561,-1.32249 -3.30622,-1.32249 -2.31436,-0.55104 -1.76332,-1.21228 -2.64499,1.4327 -1.32249,-1.98374 -1.5429,0.11021 -3.85727,2.8654 -0.99187,2.31436 -0.88166,2.20415 -0.44083,2.75519 -1.4327,1.10207 -1.98373,-1.32249 h -1.21228 l -1.76333,2.09395 -1.4327,-0.33063 -2.86539,0.77146 -1.10208,-0.77146 -3.96747,2.53478 -0.99187,1.98373 -1.4327,0.88167 -4.4083,1.10207 -5.28997,-0.55104 -2.86539,1.87353 -4.62872,0.99187 -6.06142,1.54291 0.66125,-2.09395 -3.63685,1.98374 -2.8654,1.65311 -7.60432,2.09395 -4.95934,-1.4327 -4.2981,-1.65312 -3.74706,-0.44083 -2.42279,-0.34039 -2.33785,-0.31171 -1.90925,-0.93514 -2.182,-0.97411 -2.45475,-0.66239 -1.091,0.0779 -0.9741,1.55857 -0.77929,-0.70136 -1.05203,0.50654 -1.40272,-0.23379 -2.182,-1.36375 -2.37682,-0.039 -1.32478,1.71443 0.15586,0.9741 0.5455,0.70136 0.11689,0.89618 0.19482,2.14303 -0.46757,0.70136 -2.10407,-0.77929 -0.85721,0.31172 -1.59754,1.44167 -1.091,1.48065 -0.42861,0.5455 -0.15585,1.01307 0.5455,0.66239 v 0.66239 l -0.31172,0.58447 0.0779,0.93514 0.50654,1.12996 -0.46757,0.5455 -0.58447,0.5455 -0.58446,0.81825 -0.77929,1.16893 z"
           id="path9"
           inkscape:connector-curvature="0" />
      </g>
    </g>
  </g>
</svg>
