<?xml version="1.0" encoding="UTF-8" standalone="no"?>
<!-- Created with Inkscape (http://www.inkscape.org/) -->

<svg
   xmlns:dc="http://purl.org/dc/elements/1.1/"
   xmlns:cc="http://creativecommons.org/ns#"
   xmlns:rdf="http://www.w3.org/1999/02/22-rdf-syntax-ns#"
   xmlns:svg="http://www.w3.org/2000/svg"
   xmlns="http://www.w3.org/2000/svg"
   xmlns:sodipodi="http://sodipodi.sourceforge.net/DTD/sodipodi-0.dtd"
   xmlns:inkscape="http://www.inkscape.org/namespaces/inkscape"
   width="210mm"
   height="210mm"
   viewBox="0 0 210 210"
   version="1.1"
   id="svg8"
   sodipodi:docname="Lundi.svg"
   inkscape:version="0.92.3 (2405546, 2018-03-11)">
  <defs
     id="defs2">
    <clipPath
       clipPathUnits="userSpaceOnUse"
       id="clipPath23">
      <rect
         style="fill:#ff6600;stroke-width:0.26458332"
         id="rect25"
         width="210.91072"
         height="210.72173"
         x="0.75595015"
         y="87.412201" />
    </clipPath>
  </defs>
  <sodipodi:namedview
     id="base"
     pagecolor="#ffffff"
     bordercolor="#666666"
     borderopacity="1.0"
     inkscape:pageopacity="0.0"
     inkscape:pageshadow="2"
     inkscape:zoom="0.70201162"
     inkscape:cx="307.34727"
     inkscape:cy="308.6819"
     inkscape:document-units="mm"
     inkscape:current-layer="layer1"
     showgrid="false"
     inkscape:window-width="1920"
     inkscape:window-height="1001"
     inkscape:window-x="-9"
     inkscape:window-y="-9"
     inkscape:window-maximized="1" />
  <metadata
     id="metadata5">
    <rdf:RDF>
      <cc:Work
         rdf:about="">
        <dc:format>image/svg+xml</dc:format>
        <dc:type
           rdf:resource="http://purl.org/dc/dcmitype/StillImage" />
        <dc:title />
      </cc:Work>
    </rdf:RDF>
  </metadata>
  <g
     inkscape:label="Layer 1"
     inkscape:groupmode="layer"
     id="layer1"
     transform="translate(0,-87)">
    <g
       id="g68"
       transform="matrix(1.1567672,0,0,1.1329848,-41.207234,-40.657904)">
      <path
         transform="matrix(0.26458333,0,0,0.26458333,0,87)"
         inkscape:connector-curvature="0"
         id="path37"
         d="m 255.3494,530.20186 c -1.41559,-0.5712 -1.27342,-1.90059 0.20325,-1.90059 0.67073,0 1.21951,0.54878 1.21951,1.21952 0,0.67073 -0.0915,1.19063 -0.20325,1.15532 -0.11179,-0.0353 -0.66057,-0.24871 -1.21951,-0.47425 z"
         style="fill:#ff6600;stroke-width:0.81300813" />
    </g>
    <text
       xml:space="preserve"
       style="font-style:normal;font-weight:normal;font-size:10.58333302px;line-height:8.25;font-family:sans-serif;letter-spacing:0px;word-spacing:0px;fill:#ffffff;fill-opacity:1;stroke:none;stroke-width:0.26458332;"
       x="82.162697"
       y="194.10818"
       id="text20"><tspan
         sodipodi:role="line"
         id="tspan18"
         x="82.162697"
         y="194.10818"
         style="stroke-width:0.26458332;fill:#ffffff;">GBB</tspan></text>
    <ellipse
       style="fill:#000000;stroke-width:0.26458332"
       id="path22"
       cx="105.34162"
       cy="192.60062"
       rx="105.34162"
       ry="105.15318" />
    <path
       style="fill:#ffffff;stroke-width:0.37217498"
       d="m 49.706183,273.51422 c 0.627677,-0.54115 1.376939,-1.83374 1.837131,-3.16931 0.540531,-1.56872 1.448254,-3.01965 2.981331,-4.76544 1.2123,-1.38051 2.206765,-2.80919 2.209928,-3.17485 0.01003,-1.15628 0.522695,-1.53184 2.256043,-1.65267 l 1.68554,-0.11751 0.112175,-1.89341 c 0.1317,-2.22277 0.638237,-2.7693 3.193319,-3.44541 0.99096,-0.26221 2.01174,-0.77061 2.268403,-1.12976 0.256671,-0.35914 1.077977,-0.76538 1.82514,-0.90276 1.943262,-0.3573 3.984788,0.66588 8.003493,4.01119 1.854917,1.54412 3.588925,2.80747 3.853345,2.80747 0.716375,0 0.580843,-1.63928 -0.192231,-2.32497 -0.558043,-0.49496 -0.636026,-0.97578 -0.456591,-2.81512 0.119014,-1.22001 0.423882,-2.42158 0.677502,-2.67015 0.253612,-0.24857 1.129697,-0.42581 1.946846,-0.39386 1.476394,0.0577 1.484314,0.0506 1.258363,-1.11934 -0.125058,-0.64759 -0.415037,-1.40584 -0.644392,-1.68499 -0.229363,-0.27916 -1.178297,-1.93719 -2.108734,-3.68452 -1.690577,-3.17483 -1.692788,-3.17704 -3.291059,-3.29033 -1.459552,-0.10346 -1.564817,-0.17659 -1.204406,-0.83663 0.547431,-1.00253 0.12504,-1.48756 -1.072637,-1.2317 -4.275197,0.91332 -10.67447,3.06179 -12.390522,4.15995 l -1.98134,1.26792 -0.91818,-0.84543 c -0.879865,-0.81013 -0.958431,-0.81957 -1.882628,-0.22608 -1.16472,0.74798 -1.861346,0.47634 -1.320154,-0.51476 0.536022,-0.98161 0.529482,-0.98914 -1.077969,-1.24107 -0.800203,-0.1254 -1.669071,-0.48091 -1.930825,-0.79003 -0.356606,-0.42114 -0.910689,-0.5077 -2.210452,-0.34535 -0.968314,0.12095 -2.730959,-0.004 -3.990162,-0.28349 -1.608625,-0.35667 -2.755885,-0.40155 -3.999702,-0.15647 -1.517503,0.29901 -1.891072,0.24105 -2.875577,-0.44601 -1.030089,-0.71889 -1.438106,-0.76833 -4.552843,-0.55163 -1.881745,0.13091 -3.421353,0.13267 -3.421353,0.004 0,-0.12875 0.761271,-0.42197 1.691716,-0.6516 5.232531,-1.29134 -3.048102,-1.23711 -10.338239,0.0676 -4.730502,0.84669 -4.511236,0.83858 -4.511236,0.16671 0,-0.29753 2.276957,-2.26625 5.059911,-4.37495 4.823116,-3.65456 5.792279,-4.6788 3.683794,-3.89311 -1.237835,0.46125 -1.400606,0.25314 -0.900875,-1.15184 0.317743,-0.89334 0.290135,-1.43921 -0.121637,-2.40509 l -0.532663,-1.24948 1.856426,-1.02188 c 2.140868,-1.17847 2.3913,-1.73253 0.6354,-1.40576 l -1.221797,0.22739 0.93984,-0.53991 c 1.10586,-0.63528 0.785846,-0.80234 -2.085197,-1.08852 -2.158757,-0.21518 -3.797905,-0.84714 -4.082468,-1.57392 -0.26736,-0.68287 2.306734,-2.09849 7.407565,-4.07378 5.996605,-2.32217 10.084799,-4.28368 14.379495,-6.89928 3.646534,-2.22083 3.786857,-2.35752 5.539405,-5.39534 1.202289,-2.08402 1.744526,-3.41433 1.636423,-4.01472 -0.11448,-0.63576 0.108103,-1.10591 0.762317,-1.61028 0.562654,-0.43377 0.837403,-0.93353 0.702557,-1.27794 -0.124603,-0.31824 0.136157,-0.93866 0.596229,-1.41864 0.684317,-0.71393 0.738351,-0.94673 0.331294,-1.42745 -0.380048,-0.44881 -0.390566,-0.7805 -0.04809,-1.51716 0.679517,-1.4617 4.2123,-5.22628 5.112206,-5.44764 0.545331,-0.13416 1.369285,-1.24476 2.54696,-3.43306 2.812054,-5.22523 7.706725,-11.49362 14.65133,-18.76333 l 6.496799,-6.80095 3.054994,-6.67192 c 3.542736,-7.73711 4.721876,-12.36335 5.380016,-21.10797 0.21354,-2.83707 0.57067,-7.64538 0.79363,-10.6851 0.35066,-4.78067 0.56109,-5.89981 1.55872,-8.29017 2.1421,-5.13248 6.014621,-10.35448 9.86164,-13.298152 3.3879,-2.592366 3.28815,-2.540416 6.37108,-3.317626 9.51535,-2.39886 17.23863,-1.412 22.83722,2.918046 1.52556,1.1799 4.2117,2.944702 5.9692,3.921772 4.19606,2.33277 8.54562,5.44912 9.67372,6.93099 3.00134,3.94247 4.99041,9.04433 4.98463,12.7852 l -0.003,2.03446 -3.09832,0.0509 c -1.70408,0.028 -4.9255,0.40104 -7.15872,0.82901 -4.72082,0.90468 -8.40183,0.99588 -10.21575,0.25305 -1.14059,-0.46707 -1.47353,-0.45387 -3.01485,0.11955 -0.95296,0.35453 -2.18913,1.09625 -2.74704,1.64824 l -1.01438,1.00364 1.62824,2.98597 c 0.89553,1.6423 3.54028,5.90371 5.87724,9.46982 5.41238,8.25913 6.38158,10.18682 8.1218,16.15365 1.0804,3.70438 1.48467,5.87894 1.67826,9.02706 0.47865,7.78379 -1.21704,18.58564 -3.98754,25.40129 -3.51782,8.65411 -5.91722,12.2555 -13.29475,19.95478 -6.09091,6.35654 -11.69649,11.15437 -18.25615,15.62553 -4.77313,3.25344 -6.18312,4.00064 -11.3371,6.00788 -7.71539,3.00479 -7.61511,2.64027 -2.69479,9.79591 l 3.58358,5.2116 2.310651,0.23667 c 1.270859,0.13017 7.084119,0.30467 12.918349,0.38775 9.74288,0.13878 12.13644,0.3696 12.13644,1.1703 0,0.11952 -0.51904,0.11558 -1.1534,-0.009 -1.03373,-0.20262 -1.14098,-0.14051 -1.03382,0.59873 0.11208,0.77319 0.27894,0.81851 2.66512,0.72399 5.3642,-0.21248 17.21927,1.59987 20.28006,3.10032 0.97526,0.4781 2.25426,0.86925 2.84222,0.86925 0.58797,0 2.15109,0.41562 3.47361,0.92359 1.32252,0.50799 3.72721,1.27337 5.34372,1.70087 1.6915,0.44734 3.87122,1.36772 5.13491,2.16822 2.14988,1.36188 2.20933,1.44513 2.84388,3.98291 0.35644,1.42558 0.97128,2.87862 1.36627,3.22898 0.43143,0.38266 0.7182,1.12401 0.7182,1.85668 0,0.72224 0.45996,1.93055 1.1278,2.96264 0.6203,0.95864 1.1278,1.95921 1.1278,2.22352 0,0.39313 -10.95758,0.47842 -60.24374,0.4689 L 48.64622,274.4279 Z M 90.939,249.58532 c 0,-0.42625 -3.954424,-7.92615 -4.179175,-7.92615 -0.136611,0 -0.361714,0.5921 -0.500229,1.31576 -0.138522,0.72366 -0.33156,1.51933 -0.428982,1.76814 -0.09745,0.24881 0.500905,1.48056 1.329625,2.73722 1.299741,1.97093 1.662811,2.28482 2.642751,2.28482 0.62481,0 1.13601,-0.0809 1.13601,-0.17979 z"
       id="path77"
       inkscape:connector-curvature="0" />
  </g>
</svg>
